<svg xmlns="http://www.w3.org/2000/svg" width="512" height="512" data-name="Layer 1" viewBox="0 0 24 24"><path d="M12.067 17.445a1.5 1.5 0 0 1-.012 2.121l-3.793 3.75a2.5 2.5 0 0 1-3.529-.005L.946 19.567a1.5 1.5 0 0 1 2.11-2.133l1.945 1.923V1.5a1.5 1.5 0 1 1 3 0v17.857l1.945-1.923a1.5 1.5 0 0 1 2.122.012ZM23.055 4.477 19.268.733a2.5 2.5 0 0 0-3.529-.006l-3.793 3.75a1.5 1.5 0 0 0 2.11 2.133l1.945-1.923V22.5a1.5 1.5 0 1 0 3 0V4.686l1.945 1.923a1.497 1.497 0 0 0 2.122-.011 1.5 1.5 0 0 0-.012-2.121Z"/></svg>