<svg xmlns="http://www.w3.org/2000/svg" width="104" height="104" fill="none"><path fill="#fff" d="M92.258 104c3.114 0 6.1-1.484 8.303-4.125 2.202-2.641 3.439-6.223 3.439-9.958V33.583c0-3.735-1.237-7.317-3.439-9.958S95.372 19.5 92.258 19.5s-6.1 1.484-8.303 4.125c-2.202 2.641-3.439 6.223-3.439 9.958v56.334c0 3.735 1.237 7.317 3.44 9.958 2.201 2.641 5.188 4.125 8.302 4.125M11.742 104c3.114 0 6.1-1.027 8.303-2.856 2.202-1.828 3.439-4.308 3.439-6.894v-39c0-2.586-1.237-5.066-3.44-6.894-2.201-1.829-5.188-2.856-8.302-2.856s-6.1 1.027-8.303 2.856C1.237 50.184 0 52.664 0 55.25v39c0 2.586 1.237 5.066 3.44 6.894C5.64 102.973 8.627 104 11.741 104M52 104c3.114 0 6.1-1.174 8.303-3.264 2.202-2.09 3.439-4.924 3.439-7.879V11.143c0-2.955-1.237-5.79-3.44-7.88C58.102 1.175 55.115 0 52 0s-6.1 1.174-8.303 3.264c-2.202 2.09-3.439 4.924-3.439 7.879v81.714c0 2.955 1.237 5.79 3.44 7.879C45.898 102.826 48.885 104 52 104"/></svg>