<svg xmlns="http://www.w3.org/2000/svg" width="4" height="18" fill="none"><path fill="#fff" d="M1.938 3.827q-.518 0-.945-.253a1.96 1.96 0 0 1-.681-.686 1.85 1.85 0 0 1-.259-.945A1.8 1.8 0 0 1 .307 1Q.56.572.987.317q.435-.258.95-.258.523 0 .945.258.428.255.681.682.26.422.259.944 0 .518-.259.945a1.96 1.96 0 0 1-.68.686 1.8 1.8 0 0 1-.945.253m0 7q-.518 0-.945-.253a1.96 1.96 0 0 1-.681-.686 1.85 1.85 0 0 1-.259-.945A1.8 1.8 0 0 1 .307 8q.254-.427.68-.682.435-.258.95-.258.523 0 .945.258.428.255.681.682.26.422.259.944 0 .518-.259.945a1.96 1.96 0 0 1-.68.686 1.8 1.8 0 0 1-.945.253m0 7q-.518 0-.945-.253a1.96 1.96 0 0 1-.681-.686 1.85 1.85 0 0 1-.259-.945A1.8 1.8 0 0 1 .307 15q.254-.429.68-.681.435-.26.95-.26.523 0 .945.26.428.253.681.68.26.423.259.945 0 .517-.259.945a1.96 1.96 0 0 1-.68.686 1.8 1.8 0 0 1-.945.253"/></svg>