<svg xmlns="http://www.w3.org/2000/svg" width="360" height="522" fill="none"><path fill="#EAEAEA" d="M0 0h360v522H0z"/><path fill="#202020" d="M141.975 217.956v20.304h-4.608v-8.388h-2.376v8.136h-4.572v-19.584h4.572v7.524h2.376v-7.992zm-15.984 4.824h-8.64v-3.816h8.64zm-4.32 11.016a.8.8 0 0 0-.576.252 28.5 28.5 0 0 1-4.86 4.5l-3.096-2.772q2.844-2.196 4.284-3.996t1.836-3.708h-5.148v-3.78h14.868v3.78h-5.328q-.252 2.088-1.332 4.068l.216.108.864-.648q.504-.36 1.044-.36.648 0 1.368.54l4.104 3.204-3.168 2.808-4.5-3.78q-.288-.216-.576-.216m-1.728 5.94h22.032v11.88h-4.752v-7.848h-17.28zm59.505-15.876H155.94v-4.032h23.508zm.252 12.24h-24.012v-3.96h4.788l-.972-6.228 4.968-.504.612 6.732h5.184l.648-6.732 4.968.504-1.008 6.228h4.824zm2.88 6.372v4.032h-29.736v-4.032h7.344v-4.932h4.752v4.932h5.544v-4.932h4.752v4.932zm29.218-24.516v31.968h-4.86v-31.968zm-14.076 14.076q.72 0 1.332.612l5.652 6.516-3.672 3.096-5.904-7.128q-.252-.252-.468-.252t-.396.216q-1.944 3.24-6.264 7.74l-3.672-3.024q4.032-3.816 5.832-7.164a14.9 14.9 0 0 0 1.836-7.2v-.684h-6.3v-4.032h17.388v4.032h-6.228v.864q0 4.068-1.548 7.488l.18.108.972-.72q.648-.468 1.26-.468m38.434-8.424v-1.8h-16.272v-3.24H240.8v8.1h-16.2v1.8h16.956v3.24H219.92v-8.1zM215.6 236.784v-3.492h29.736v3.492zm4.284 11.664v-5.112h16.812v-1.656H219.74v-3.312h21.42v8.028h-16.812v1.728h17.64v3.384h-19.044q-3.06 0-3.06-3.06M88.142 279.696v4.032H83.39v7.344h-4.824v-19.116h4.824v7.74zm-16.272-3.492H61.754v-3.852H71.87zm-11.736 15.768-3.312-2.88q3.528-2.016 5.292-3.816 1.8-1.8 2.16-3.672h-6.228v-3.78h17.568v3.78h-6.732a8.6 8.6 0 0 1-1.404 3.888l.216.108 1.008-.72q.612-.468 1.26-.468.576 0 1.332.432l5.328 3.456-3.312 2.952-5.724-4.068a1.47 1.47 0 0 0-.792-.252.96.96 0 0 0-.648.252q-2.016 2.232-6.012 4.788m16.2 6.624q.432 0 1.116.288l7.632 3.204-2.34 3.636-8.712-4.176a2.3 2.3 0 0 0-1.044-.252q-.576 0-1.152.288l-.18.108q-2.988 2.124-9 4.104l-2.304-3.636q4.68-1.296 7.02-2.664 2.376-1.404 2.952-3.06h-8.316v-3.96H83.39v3.96h-8.208q-.288 1.908-1.584 3.528l.216.072 1.008-.756q.9-.684 1.512-.684m16.294-20.412q0-2.844 2.772-4.428t8.352-1.584 8.352 1.584 2.772 4.428q0 2.88-2.772 4.464-2.736 1.584-8.352 1.584t-8.388-1.584q-2.736-1.584-2.736-4.464m17.1.144v-.324q0-2.34-5.976-2.34t-5.976 2.34v.324q0 2.34 5.976 2.34t5.976-2.34m-20.844 11.124v-3.888h29.736v3.888zm4.392 12.816v-5.688h16.452v-1.908H93.132v-3.492h21.24v8.64H97.884v1.944H115.2v3.564H96.336q-3.06 0-3.06-3.06m38.769-14.256-2.664-3.708q6.156-2.52 8.748-5.004t2.592-5.508v-1.332h4.932v1.476q0 3.96-2.268 6.768l.288.108 1.584-1.152q.828-.612 1.62-.612.72 0 1.404.432l8.172 4.68-2.7 3.744-9.468-5.76a2.14 2.14 0 0 0-1.116-.324q-.612 0-1.224.396h-.036q-1.62 1.476-3.996 2.844t-5.868 2.952m25.74 6.12h-12.456v10.98h-4.824v-10.98h-12.456v-4.068h29.736zm18.79-4.968q-2.556 0-4.536-.972-1.98-1.008-3.096-2.808-1.08-1.836-1.08-4.248t1.08-4.212q1.116-1.836 3.096-2.808 1.98-1.008 4.536-1.008 3.24 0 5.508 1.584 2.304 1.584 2.952 4.32h5.04v-7.056h4.824v17.928h-4.824v-6.912h-4.968q-.576 2.844-2.916 4.536-2.304 1.656-5.616 1.656m0-3.852q1.656 0 2.664-.9 1.008-.936 1.008-2.556v-1.44q0-1.62-1.008-2.52-1.008-.936-2.664-.936t-2.664.936q-1.008.9-1.008 2.52v1.44q0 1.62 1.008 2.556 1.008.9 2.664.9m21.384 17.316-3.24 2.844-3.816-4.68q-.18-.252-.396-.252t-.396.216q-1.584 2.376-4.32 5.076l-2.304-2.016v1.404h-9.216q-3.06 0-3.06-3.06v-10.836h4.032v3.672h4.212v-3.672h4.032v10.908q2.412-2.412 3.492-4.644a10.5 10.5 0 0 0 1.116-4.752v-1.548h4.32v1.8q0 2.916-1.152 5.508l.18.144.612-.504q.504-.432 1.044-.432.612 0 1.008.468zm-18.504-4.248h-4.212v3.42h4.212zm23.277-12.816-2.556-3.6q5.94-1.98 8.532-4.068 2.628-2.088 2.628-4.608v-.936h4.788v1.152q0 3.348-2.196 5.832l.36.108 1.548-1.08q.936-.648 1.8-.648a2.7 2.7 0 0 1 1.224.288l7.884 3.852-2.628 3.636-9.216-4.824a2.6 2.6 0 0 0-1.224-.324q-.612 0-1.224.36-1.62 1.26-3.996 2.412-2.34 1.152-5.724 2.448m25.596 1.368v3.888h-29.736v-3.888zm-8.928 5.436h4.752v12.708h-18.36q-3.06 0-3.06-3.06v-9.648h4.752v2.736H219.4zm0 6.408h-11.916v2.592H219.4zm38.146-26.82v31.968h-4.86v-31.968zm-8.136 18.36.576 3.96q-6.264 1.224-14.976 1.224h-3.384v-20.988h4.824v16.92q7.488-.108 12.96-1.116m42.538-2.736h-4.788v16.344h-4.824v-31.968h4.824v11.592h4.788zm-12.096 3.456.576 3.852q-2.916.54-6.372.864-3.42.288-8.208.288H262.5v-21.528h15.12v4.032h-10.296v13.5q7.416-.108 12.528-1.008m17.265 9.36q-1.62 0-2.412-.792-.756-.828-.756-2.088v-.72q0-1.26.756-2.052.792-.828 2.412-.828t2.376.828q.792.792.792 2.052v.72q0 1.26-.792 2.088-.756.792-2.376.792"/></svg>